<svg width="228" height="48" viewBox="0 0 228 48" fill="none" xmlns="http://www.w3.org/2000/svg">
<g clip-path="url(#clip0_15_195)">
<path d="M111.749 42.6939L106.312 32.8309H104.365V44.5021H105.744V34.5569L111.181 44.5021H113.129V32.8309H111.749V42.6939ZM116.456 39.1597H121.975V37.8446H116.456V34.146H122.462V32.8309H115.077V44.5021H122.543V43.187H116.456V39.1597ZM129.441 32.6665C125.951 32.6665 123.435 35.2145 123.435 38.6665C123.435 42.1186 125.951 44.6665 129.441 44.6665C132.93 44.6665 135.365 42.1186 135.365 38.6665C135.365 35.2145 132.849 32.6665 129.441 32.6665ZM133.904 38.6665C133.904 41.5432 131.875 43.3514 129.359 43.3514C126.844 43.3514 124.815 41.5432 124.815 38.6665C124.815 35.7898 126.844 33.9816 129.359 33.9816C131.875 33.9816 133.904 35.7898 133.904 38.6665Z" fill="url(#paint0_radial_15_195)"/>
<path d="M71.9451 13.3415C71.9451 15.1587 73.0343 16.774 74.9518 16.774C75.4273 16.774 75.9489 16.6653 76.3784 16.4633V11.5398C76.3784 10.8564 76.4704 10.2662 76.4858 10.173C76.3784 10.1419 75.7801 9.89344 74.8137 9.89344C72.7735 9.89344 71.9451 11.4777 71.9451 13.3415ZM79.1243 8.4024C79.0783 8.63538 79.0016 9.59834 79.0016 10.3594V23.4215L76.3937 23.7632V18.6844C75.7341 18.9329 75.0438 19.0571 74.3995 19.0571C71.4696 19.0571 69.0458 16.6653 69.0458 13.3104C69.0458 9.95557 71.3315 7.61028 74.8751 7.61028C76.8386 7.61028 78.8635 8.30921 79.1243 8.4024ZM50.4383 8.82175C50.4536 8.89941 50.6377 9.72259 50.6377 10.9807V18.8242H53.2302V11.6951C53.2302 10.7632 53.1228 10.2662 53.1074 10.2041C53.2148 10.173 54.1046 9.90897 55.163 9.90897C55.6386 9.90897 56.2522 10.0177 56.5897 10.1264L57.372 7.87432C56.7891 7.71901 56.0528 7.62582 55.3778 7.62582C53.0461 7.61028 50.7297 8.71303 50.4383 8.82175ZM67.4965 12.86C67.4965 13.4502 67.3891 14.1025 67.3431 14.3044H60.348C60.4554 15.7489 61.5752 16.774 63.3086 16.774C64.812 16.774 65.763 16.1216 65.9164 16.0285L66.8062 18.0631C66.6374 18.1563 65.3642 18.9795 63.2473 19.0416C60.1332 19.1348 57.5714 16.5876 57.5407 13.4347C57.5101 10.2196 59.1208 7.59476 62.557 7.59476C65.717 7.61029 67.4965 9.81578 67.4965 12.86ZM64.8273 12.2387C64.812 10.8564 64.045 9.78472 62.5876 9.78472C61.0383 9.78472 60.3787 11.0117 60.3633 12.2387H64.8273ZM44.2869 7.61028C42.5995 7.61028 41.3723 8.38687 41.2342 8.48006V2.23633L38.6264 2.8576V18.8242H41.2342V10.7166C41.6024 10.4681 42.5841 9.90897 43.5352 9.90897C44.8085 9.90897 45.5294 10.6856 45.5294 11.9902V18.8397H48.1373V11.5243C48.1526 9.10133 46.7873 7.61028 44.2869 7.61028ZM34.0397 12.4251C33.7022 12.2853 33.2574 12.1145 32.9506 11.9902C32.1529 11.6796 31.7233 11.3534 31.7233 10.7477C31.7233 10.0954 32.3523 9.81578 33.0733 9.81578C34.2851 9.81578 35.3743 10.2817 35.451 10.3128L36.1873 8.27815C35.9112 8.13836 34.776 7.59475 33.0119 7.61028C31.0484 7.62582 29.0695 8.72857 29.0695 10.903C29.0695 12.7357 30.3581 13.5279 31.4779 13.9472C31.8154 14.0715 32.2756 14.2423 32.5671 14.3666C33.4414 14.7238 33.7789 15.1742 33.7789 15.6868C33.7789 16.4167 33.15 16.9293 31.8921 16.9293C30.7262 16.9293 29.5757 16.2925 29.5297 16.277L28.778 18.3427C28.9775 18.4203 30.5115 19.0571 32.3523 19.0571C34.6073 19.0571 36.6629 18.032 36.6629 15.6246C36.6629 13.8696 35.4356 12.9842 34.0397 12.4251ZM26.7071 16.4323C26.7071 17.5661 26.8605 18.0165 26.9065 18.2184C26.7378 18.265 24.5595 19.0727 22.2432 19.0727C19.8961 19.0727 17.3957 18.234 17.3957 15.6712C17.3957 12.6891 20.5711 12.4562 22.55 11.9902C23.4857 11.7728 24.0993 11.5087 24.0993 10.8719C24.0993 10.2817 23.3937 9.84685 22.2892 9.84685C20.8012 9.84685 19.4052 10.4992 19.2672 10.5613L18.3775 8.57325C18.5769 8.48006 20.4484 7.62582 22.4426 7.62582C25.1271 7.62582 26.7071 9.0392 26.7071 11.633V16.4323ZM24.1914 16.5721C24.176 16.4789 24.0993 16.0595 24.0993 15.3295V13.4502C23.7311 13.7453 22.8414 13.9783 22.0591 14.1802C21.1233 14.3976 20.2489 14.7238 20.2489 15.547C20.2489 16.5565 21.2 16.9293 22.2125 16.9293C23.2709 16.9138 24.0993 16.6031 24.1914 16.5721ZM11.4284 7.61028C9.72563 7.61028 8.23764 8.58878 8.05356 8.6975C7.93084 8.57325 7.13315 7.61028 4.8935 7.61028C2.7919 7.61028 0.260782 8.61984 0 8.72857C0.0306802 8.83729 0.199422 9.50515 0.199422 10.1419V18.8242H2.7919V11.4621C2.7919 10.8253 2.7152 10.4526 2.69986 10.3905C2.80724 10.3439 3.68163 9.90897 4.63271 9.90897C5.85992 9.90897 6.53489 10.6856 6.53489 11.9126V18.8242H9.1427V12.1455C9.1427 11.167 9.00464 10.5768 8.97396 10.4681C9.11202 10.406 10.0324 9.90897 10.9835 9.90897C12.2567 9.90897 12.8857 10.7166 12.8857 11.9281V18.8086H15.4935V11.4C15.4935 9.02367 13.8675 7.61028 11.4284 7.61028Z" fill="url(#paint1_radial_15_195)"/>
<path d="M161.255 5.51374L163.004 7.25328L164.753 5.38948L162.958 3.61887L161.255 5.34289L159.568 3.61887L157.85 5.46714L159.599 7.23775L161.255 5.51374ZM189.067 2.53166L187.303 0.72998L185.569 2.57825L187.318 4.34886L189.067 2.53166ZM187.303 5.5448L189.052 7.28435L190.816 5.42055L189.021 3.64993L187.318 5.37395L185.631 3.66547L183.913 5.49821L185.661 7.28435L187.303 5.5448ZM222.585 16.5257C222.585 17.5508 222.83 18.2342 222.861 18.3584C222.708 18.4206 220.729 19.2437 217.845 19.2437C217.845 19.2437 208.641 19.2282 207.46 19.2282C204.836 19.2282 203.855 18.0944 203.609 17.8304C203.395 18.2186 202.52 19.2282 200.664 19.2282C200.434 19.2282 175.966 19.1971 175.874 19.1971C175.721 22.0084 173.512 24.8973 168.404 25.2079L168.174 23.4839C171.426 22.9403 173.282 21.0765 173.282 18.0944C173.282 16.1219 172.668 14.7396 171.533 13.497L173.343 11.6487C174.616 12.5651 175.736 14.3668 175.905 16.6189H182.593C182.517 16.5102 182.379 16.0442 182.379 15.454C182.379 13.6989 181.044 12.8602 180.707 12.5962L182.44 10.8256C183.345 11.5711 184.802 12.7981 184.787 15.454C184.787 16.1063 184.925 16.4791 185.002 16.6344H187.84C187.794 16.5102 187.625 16.2151 187.625 15.3608C187.625 13.6057 186.275 12.8447 185.953 12.6117L187.671 10.8411C188.576 11.5866 190.033 12.8136 190.018 15.4695C190.018 16.1219 190.141 16.448 190.233 16.6499C191.122 16.6499 193.255 16.6499 193.255 16.6499C193.163 16.4946 192.994 16.2772 192.994 15.3608C192.994 13.264 192.411 12.1458 191.046 11.1362L192.81 9.35006C194.175 10.4062 195.479 12.3787 195.479 15.718C195.479 16.2306 195.678 16.5257 195.74 16.6344C195.817 16.6344 199.513 16.6344 199.974 16.6344C201.953 16.6344 202.428 15.3298 202.904 14.5532C204.622 11.6798 205.634 9.2724 208.073 9.2724C210.052 9.2724 210.85 11.307 212.23 13.7921C213.074 15.3298 212.875 16.5102 212.798 16.6499C213.013 16.6499 217.645 16.6499 217.968 16.6499C219.394 16.6499 220.146 16.2772 220.223 16.2461C220.192 16.0908 219.977 15.4695 219.977 13.8698C219.977 10.1732 219.993 3.32377 219.993 3.32377L222.585 2.71803V16.5257ZM210.037 15.0657C208.963 13.0777 208.625 12.1302 207.72 12.1302C206.662 12.1302 206.232 13.1709 205.021 15.3298C205.465 15.7646 206.217 16.6344 208.334 16.6499C208.426 16.6499 209.009 16.6499 209.393 16.6499C210.067 16.6499 210.543 15.9821 210.037 15.0657ZM225.408 3.3393L225.392 19.2593H227.985L228 2.73357L225.408 3.3393ZM164.415 11.7109C165.643 13.0466 166.716 14.491 166.716 17.6284C166.716 21.6822 163.848 24.3537 156.945 24.3537C147.234 24.3381 147.802 16.184 150.425 11.7109L152.481 12.767C149.336 18.0478 151.806 21.7133 156.945 21.7288C161.148 21.7288 163.756 20.6416 164.108 19.1971C163.74 19.1971 161.531 19.2127 161.209 19.2127C155.242 19.2127 157.328 11.3071 160.764 10.3907C162.436 9.92474 163.771 11.012 164.415 11.7109ZM164.108 16.6034C163.372 13.7921 161.792 12.9223 160.979 13.0777C158.908 13.4815 158.847 16.6034 161.823 16.6034C162.268 16.6034 163.725 16.6034 164.108 16.6034Z" fill="url(#paint2_radial_15_195)"/>
<path d="M137.386 17.8612C138.997 17.007 139.886 15.5315 140.531 13.8696C138.813 13.4813 137.11 13.4036 135.515 14.2579C133.904 15.1121 133.014 16.5876 132.37 18.2495C134.073 18.6533 135.775 18.7155 137.386 17.8612Z" fill="url(#paint3_radial_15_195)"/>
<path d="M135.116 12.4566C133.704 14.7242 131.833 15.6095 130.192 16.1065C129.915 14.3825 129.9 12.2857 131.311 10.0181C132.723 7.75048 134.579 6.86518 136.236 6.36816C136.512 8.10771 136.527 10.189 135.116 12.4566Z" fill="url(#paint4_radial_15_195)"/>
<path d="M129.655 8.58908C129.701 5.35849 128.182 2.92001 127.17 1.55322C126.065 2.96661 124.516 5.28083 124.47 8.51142C124.424 11.4935 125.697 13.8543 126.955 15.5473C128.259 13.8698 129.609 11.5712 129.655 8.58908Z" fill="url(#paint5_radial_15_195)"/>
<path d="M121.862 6.75628C119.929 3.1374 116.815 1.18041 114.775 0C114.667 2.42294 114.483 5.99523 116.462 9.69177C118.257 13.0621 120.972 14.9259 123.549 16.448C123.733 13.4504 123.611 10.049 121.862 6.75628Z" fill="url(#paint6_radial_15_195)"/>
<path d="M112.198 9.33451C107.749 6.78732 102.656 6.19711 99.3119 6.24371C100.923 9.05494 104.006 13.2174 108.562 15.8268C112.949 18.3429 117.904 18.9641 121.448 18.9176C119.592 15.7491 116.6 11.8506 112.198 9.33451Z" fill="url(#paint7_radial_15_195)"/>
<path d="M103.76 18.0166C98.2227 18.0166 92.0253 19.6785 87.0704 22.0082C92.0866 24.3225 98.0539 25.9999 103.76 25.9999C108.301 25.9999 113.732 25.099 120.451 22.0082C113.087 18.6689 107.994 18.0321 103.76 18.0166Z" fill="url(#paint8_radial_15_195)"/>
</g>
<defs>
<radialGradient id="paint0_radial_15_195" cx="0" cy="0" r="1" gradientUnits="userSpaceOnUse" gradientTransform="translate(127.655 36.6117) scale(9.00785 9.12329)">
<stop stop-color="#FAD929"/>
<stop offset="0.1" stop-color="#F7BD2A"/>
<stop offset="0.4" stop-color="#F48F2D"/>
<stop offset="0.6" stop-color="#F16D30"/>
<stop offset="0.8" stop-color="#EF5831"/>
<stop offset="0.9" stop-color="#EF5132"/>
</radialGradient>
<radialGradient id="paint1_radial_15_195" cx="0" cy="0" r="1" gradientUnits="userSpaceOnUse" gradientTransform="translate(54.7296 39.8911) scale(63.1681 63.9569)">
<stop stop-color="#FFDC04"/>
<stop offset="0.2068" stop-color="#F8B10E"/>
<stop offset="0.4624" stop-color="#F18219"/>
<stop offset="0.6892" stop-color="#EB6020"/>
<stop offset="0.8761" stop-color="#E84C25"/>
<stop offset="1" stop-color="#E74427"/>
</radialGradient>
<radialGradient id="paint2_radial_15_195" cx="0" cy="0" r="1" gradientUnits="userSpaceOnUse" gradientTransform="translate(187.009 39.6667) scale(60.3805 61.1345)">
<stop stop-color="#FFDC04"/>
<stop offset="0.1801" stop-color="#F8B10E"/>
<stop offset="0.4027" stop-color="#F18219"/>
<stop offset="0.6001" stop-color="#EB6020"/>
<stop offset="0.7629" stop-color="#E84C25"/>
<stop offset="0.8708" stop-color="#E74427"/>
</radialGradient>
<radialGradient id="paint3_radial_15_195" cx="0" cy="0" r="1" gradientUnits="userSpaceOnUse" gradientTransform="translate(132.356 18.2518) scale(9.67267 9.79348)">
<stop stop-color="#FFDC04"/>
<stop offset="0.2068" stop-color="#F8B10E"/>
<stop offset="0.4624" stop-color="#F18219"/>
<stop offset="0.6892" stop-color="#EB6020"/>
<stop offset="0.8761" stop-color="#E84C25"/>
<stop offset="1" stop-color="#E74427"/>
</radialGradient>
<radialGradient id="paint4_radial_15_195" cx="0" cy="0" r="1" gradientUnits="userSpaceOnUse" gradientTransform="translate(130.184 16.1137) scale(11.3627 11.5046)">
<stop stop-color="#FFDC04"/>
<stop offset="0.2068" stop-color="#F8B10E"/>
<stop offset="0.4624" stop-color="#F18219"/>
<stop offset="0.6892" stop-color="#EB6020"/>
<stop offset="0.8761" stop-color="#E84C25"/>
<stop offset="1" stop-color="#E74427"/>
</radialGradient>
<radialGradient id="paint5_radial_15_195" cx="0" cy="0" r="1" gradientUnits="userSpaceOnUse" gradientTransform="translate(126.948 15.5371) scale(14.2168 14.3944)">
<stop stop-color="#FFDC04"/>
<stop offset="0.2068" stop-color="#F8B10E"/>
<stop offset="0.4624" stop-color="#F18219"/>
<stop offset="0.6892" stop-color="#EB6020"/>
<stop offset="0.8761" stop-color="#E84C25"/>
<stop offset="1" stop-color="#E74427"/>
</radialGradient>
<radialGradient id="paint6_radial_15_195" cx="0" cy="0" r="1" gradientUnits="userSpaceOnUse" gradientTransform="translate(123.531 16.4454) scale(18.3929 18.6226)">
<stop stop-color="#FFDC04"/>
<stop offset="0.2068" stop-color="#F8B10E"/>
<stop offset="0.4624" stop-color="#F18219"/>
<stop offset="0.6892" stop-color="#EB6020"/>
<stop offset="0.8761" stop-color="#E84C25"/>
<stop offset="1" stop-color="#E74427"/>
</radialGradient>
<radialGradient id="paint7_radial_15_195" cx="0" cy="0" r="1" gradientUnits="userSpaceOnUse" gradientTransform="translate(121.937 19.0959) scale(26.5489 26.8804)">
<stop offset="4.52862e-07" stop-color="#FFDC04"/>
<stop offset="0.1952" stop-color="#F8B10E"/>
<stop offset="0.4364" stop-color="#F18219"/>
<stop offset="0.6505" stop-color="#EB6020"/>
<stop offset="0.8269" stop-color="#E84C25"/>
<stop offset="0.9438" stop-color="#E74427"/>
</radialGradient>
<radialGradient id="paint8_radial_15_195" cx="0" cy="0" r="1" gradientUnits="userSpaceOnUse" gradientTransform="translate(121.053 21.9672) scale(34.2178 34.6451)">
<stop stop-color="#FFDC04"/>
<stop offset="0.1801" stop-color="#F8B10E"/>
<stop offset="0.4027" stop-color="#F18219"/>
<stop offset="0.6001" stop-color="#EB6020"/>
<stop offset="0.7629" stop-color="#E84C25"/>
<stop offset="0.8708" stop-color="#E74427"/>
</radialGradient>
<clipPath id="clip0_15_195">
<rect width="228" height="48" fill="white"/>
</clipPath>
</defs>
</svg>
