<svg width="720" height="240" viewBox="0 0 720 240" fill="none" xmlns="http://www.w3.org/2000/svg">
  <rect width="720" height="240" rx="48" fill="url(#bg)"/>
  <g filter="url(#shadow)">
    <rect x="36" y="36" width="168" height="168" rx="42" fill="#F8FAFC"/>
    <path d="M80 78H124C156.033 78 182 103.967 182 136C182 168.033 156.033 194 124 194H80V78Z" fill="#0B1220"/>
    <path d="M101 99H124C144.435 99 161 115.565 161 136C161 156.435 144.435 173 124 173H101V99Z" fill="#12E0A0"/>
    <path d="M121 120H124C132.837 120 140 127.163 140 136C140 144.837 132.837 152 124 152H121V120Z" fill="#0B1220"/>
  </g>
  <path d="M266 74H321.339C358.152 74 388 103.848 388 140.661C388 177.474 358.152 207.322 321.339 207.322H266V74ZM315.472 162.716C329.067 162.716 340.087 151.696 340.087 138.102C340.087 124.507 329.067 113.487 315.472 113.487H308.047V162.716H315.472Z" fill="#F8FAFC"/>
  <path d="M419.706 74H467.519V207.322H419.706V74ZM473.726 74H527.775L574.679 130.758L528.21 207.322H472.745L522.733 130.323L473.726 74Z" fill="#F8FAFC"/>
  <path d="M589.406 74H637.22V164.226H700V207.322H589.406V74Z" fill="#F8FAFC"/>
  <defs>
    <filter id="shadow" x="12" y="16" width="216" height="216" filterUnits="userSpaceOnUse" color-interpolation-filters="sRGB">
      <feFlood flood-opacity="0" result="BackgroundImageFix"/>
      <feColorMatrix in="SourceAlpha" type="matrix" values="0 0 0 0 0 0 0 0 0 0 0 0 0 0 0 0 0 0 127 0" result="hardAlpha"/>
      <feOffset dy="4"/>
      <feGaussianBlur stdDeviation="12"/>
      <feComposite in2="hardAlpha" operator="out"/>
      <feColorMatrix type="matrix" values="0 0 0 0 0.0431373 0 0 0 0 0.0705882 0 0 0 0 0.12549 0 0 0 0.24 0"/>
      <feBlend mode="normal" in2="BackgroundImageFix" result="effect1_dropShadow_1_2"/>
      <feBlend mode="normal" in="SourceGraphic" in2="effect1_dropShadow_1_2" result="shape"/>
    </filter>
    <linearGradient id="bg" x1="56" y1="28" x2="666" y2="232" gradientUnits="userSpaceOnUse">
      <stop stop-color="#0F172A"/>
      <stop offset="1" stop-color="#111827"/>
    </linearGradient>
  </defs>
</svg>
